# xmcd CD database file
#
# Track frame offsets:
#	150
#	13844
#	30828
#	48289
#	67882
#	81956
#	97693
#	112435
#	126115
#	138642
#	155770
#	171442
#
# Disc length: 2451 seconds
#
# Revision: 0
# Processed by: cddbd v1.5.1PL0 Copyright (c) Steve Scherf et al.
# Submitted via: CDex 1.51
#
DISCID=9e09910c
DTITLE=Truck Stop - Wenn ein Stern vom Himmel fällt
DYEAR=2004
DGENRE=Country
TTITLE0=Ich wünsche mir zum Weihnachtsfest
TTITLE1=Sonst glaub' ich's nicht
TTITLE2=Big Old Joe, der Weihnachtsbär
TTITLE3=Wohin der Wind Dich treibt
TTITLE4=Papi, nur eines wünsch ich mir
TTITLE5=Das alte Eisen
TTITLE6=Söhnchen mein Söhnchen
TTITLE7=Ein alter Schuhkarton
TTITLE8=Jingle Bells ( Schlittenfahren im Schnee)
TTITLE9=Der Kaffee muß schwarz sein
TTITLE10=Wenn ein Stern vom Himmel fällt
TTITLE11=Wir wünschen euch ein frohes Fest
EXTD=YEAR: 2004
EXTT0=
EXTT1=
EXTT2=
EXTT3=
EXTT4=
EXTT5=
EXTT6=
EXTT7=
EXTT8=
EXTT9=
EXTT10=
EXTT11=
PLAYORDER=
